<?xml version="1.0" encoding="utf-8"?>
<!-- Generator: Adobe Illustrator 24.0.2, SVG Export Plug-In . SVG Version: 6.00 Build 0)  -->
<svg version="1.1" xmlns="http://www.w3.org/2000/svg" xmlns:xlink="http://www.w3.org/1999/xlink" x="0px" y="0px"
	 viewBox="0 0 1200 1200" style="enable-background:new 0 0 1200 1200;" xml:space="preserve">
<style type="text/css">
	.st0{fill:url(#SVGID_1_);}
	.st1{fill:#231F20;}
	.st2{fill-rule:evenodd;clip-rule:evenodd;fill:#FFFFFF;}
	.st3{fill-rule:evenodd;clip-rule:evenodd;fill:#231F20;}
</style>
<g id="Layer_1">
	
		<radialGradient id="SVGID_1_" cx="507.9627" cy="600" r="674.3333" fx="1172.8224" fy="487.3635" gradientTransform="matrix(0.8349 0 0 0.9571 175.6511 25.7274)" gradientUnits="userSpaceOnUse">
		<stop  offset="0" style="stop-color:#FFFFFF"/>
		<stop  offset="0" style="stop-color:#FFE8E5"/>
		<stop  offset="0" style="stop-color:#FFCDC6"/>
		<stop  offset="0" style="stop-color:#FFB5AA"/>
		<stop  offset="0" style="stop-color:#FFA294"/>
		<stop  offset="0" style="stop-color:#FF9383"/>
		<stop  offset="0" style="stop-color:#FF8978"/>
		<stop  offset="0" style="stop-color:#FF8371"/>
		<stop  offset="0" style="stop-color:#FF816F"/>
	</radialGradient>
	<rect x="-0.3" class="st0" width="1200" height="1200"/>
	<g>
		<path class="st1" d="M2223.5,3968.1c31.6,11.6-143.5-289.5-143.5-289.5c-38.6-60.5-84.5-156.3-128-255.1
			c-79.6-181.1-150.5-372.1-150.5-372.1c69.1,46.2-15-90.8-15-90.8c-27.1-58.4-245.7-506.2-245.7-506.2l-233.4-505.4
			c-113-242.6-324.9-568.2-324.9-568.2c-45-71.8-257.2-269-257.2-269c-90-71.3-59.7-202.2-59.7-202.2c4.6-30.2,23-62.4,23-62.4
			l2.4-5L751,721.7c24.4-81.5,99.4-101.2,99.4-101.2c111.9-11.6,275.7-52.9,275.7-52.9c-90-87.7-345-154.6-345-154.6
			C632.4,271.8,398.8,256.7,398.8,256.7c-380.7,19.1-528.3,421.9-548,489.7s-85.6,155.2-85.6,155.2c55.8-14.1-21.5,76.6-21.5,76.6
			s-19.4,28.4-5.6,9.9c13.8-18.5,35.9,4.2,35.9,4.2c-61.8,63.3-32.1,67.2-32.1,67.2c100.4-80.8,43.6,18.4,43.6,18.4
			c-52.4,35.8-70.3,150.7-70.3,150.7c65-91.3,19.7,4.7,19.7,4.7c-96,178.8-13.1,117.6-13.1,117.6c-51.6,168-4.4,135.8-4.4,135.8
			c-17,102.2-9.8,573.9-9.8,573.9c126.1,720.8,641.6,1061.9,641.6,1061.9c-63.4,32.8-23.2,118.4-23.2,118.4s-224.1,62.6-519.9,117.4
			c-295.9,54.8-392.1,5.8-392.1,5.8C-621.6,3264.7-735,3279-735,3279l-46.6-33.1c125.3,139.5,269.8,259.8,429.3,357.4
			c99.4,53.3,181.5,87.6,181.5,87.6c8.1,8.5,17,16.3,26.5,23.2c21.2,9.6,42.4,18.8,63.7,27.7c13.8,2.9,28,3.6,42.1,1.9
			c4.1,7.1,8.6,13.9,13.7,20.3c120.4,45.6,245.3,78.9,372.7,99.7c-39.4-83.3-220.7-97.6-220.7-97.6c9.9-33.8-40.7-79.3-40.7-79.3
			c-42.8-31-18-46.4-18-46.4l529.4-184.5c80.9,3.5,156.7-117.7,156.7-117.7c63.1,62.5,69.1-9.6,69.1-9.6
			c164.1,136.7,220.6,77,220.6,77c186.2,240.8,273,328.7,313.6,358.2c36,26.2,35.5,6.2,35.5,6.2
			c372.8,618.4,251.8,256.1,251.8,256.1c-1.2-14.3-91-291.8-106-339.3c-32.6-100.3-60-183.7-60-183.7l59.4,24.1
			c54.9,22.4,105.5,65.5,131.8,90.4c12.1,11.4,19.1,19,19.1,19c92.3,112,388.5,268.4,388.5,268.4l158.9,173.3
			C2530.5,4311.8,2223.5,3968.1,2223.5,3968.1z M108.1,3521.1c-250.6,87.1-348.2,1.3-348.2,1.3c-34.8-39.6,32.2-50.7,32.2-50.7
			c96.3-56.8,613.1-113.3,613.1-113.3c92,22.9,25.3-77.8,123.9-60.6C627.6,3314.9,358.7,3434.1,108.1,3521.1z"/>
		<path class="st2" d="M846.2,450.7c16.7,10.7,20.1-9.2,20.6-21.3c1.5-41.1,21.5-159.3,17.1-197.8c-5.2-45.2-7.4-18.3,1.5-39
			c1.5-3.5,3.1-19.7-8-18.7c-16.6,1.4-9.9,3.8-42.7,6.1c-111,7.7-203.4,16.7-315.9,43.1c-49.7,11.7-54.4,16.3-98.7,36.3
			c14.4,2.7,37,4.2,53.9,8.1c29.6-13.3,28.6-13.6,98.3-0.5c25.7,4.8,46.7-1.4,95.7-10c22.6-4,167.2-29.6,166.3-27.5L819,261.6
			c0,0-12,11.8-13.7,12.8c-8.8,4.7-40.4,4.4-81.5,28.5C687.1,324.5,573,405.6,535.1,431.1c-5.6,3.8-5.6,3.8-30.4,2.7
			c-114.5-5-301.3-2.7-413.1,2c-23.9,1-68.9,1.7-85,10.6c-25.9,14.3-26.8,55.3-21.2,62.2c4.2,5,8.1,10.1,11.7,15.5
			c10.1,13.9,24.8,20.6,27.2,5.3c3.9-23.2-14.9-71.6,42.8-37.7c22.5,13.2,48.1,30.1,73.6,37.9c28.4,8.7,188.7-3,243.3-6.3
			c45.8-2.7,154.3-10.6,157.1-10.2c38.1,5.3,33.9-20.4,47.3,52c4.2,22.6,12.5,74.1,22.9,91.5c38.6,64.8,123.7-13.1,155.7-60.6
			c32-47.5,46.5-119.7,54.2-171.7C824.1,406.9,827.4,438.6,846.2,450.7z"/>
		<path class="st3" d="M773.5,370.6l-7.6,7c0,0,20.7,53.4,20.2,60.7C784.8,414.8,779.7,385.4,773.5,370.6z"/>
		<path class="st3" d="M869.8,240.5l-4.5,3.1c0,0,8.7,57,6.7,64C875.8,284.4,872.6,256.4,869.8,240.5z"/>
		<polygon class="st1" points="825.5,425.7 874.2,441.3 876.9,471.2 823.4,436.9 		"/>
	</g>
</g>
<g id="Layer_2">
</g>
</svg>
