<?xml version="1.0" encoding="utf-8"?>
<!-- Generator: Adobe Illustrator 24.0.2, SVG Export Plug-In . SVG Version: 6.00 Build 0)  -->
<svg version="1.1" xmlns="http://www.w3.org/2000/svg" xmlns:xlink="http://www.w3.org/1999/xlink" x="0px" y="0px"
	 viewBox="0 0 1200 1200" style="enable-background:new 0 0 1200 1200;" xml:space="preserve">
<style type="text/css">
	.st0{fill:#231F20;}
	.st1{fill-rule:evenodd;clip-rule:evenodd;fill:#FFFFFF;}
	.st2{fill-rule:evenodd;clip-rule:evenodd;fill:#231F20;}
</style>
<g id="Layer_1">
	<g>
		<path class="st0" d="M1101.7,930.3c9.6-1.6-77.7-50.5-77.7-50.5c-18.4-9.4-43.7-26.3-68.9-44.3c-46.1-33-91.4-69.7-91.4-69.7
			c24,1.6-16.8-20-16.8-20c-15.2-10.4-134.6-89.1-134.6-89.1l-131.4-90.6c-63.3-43.4-163.5-93.2-163.5-93.2
			C395.8,461.7,314,443.2,314,443.2c-32.9-4.8-44.1-40.9-44.1-40.9c-3.2-8-3.2-18.4-3.2-18.4l-0.1-1.5l-2.3-37.7
			c-5.6-23.2,10.5-38.5,10.5-38.5c26.5-18.4,61.8-51.3,61.8-51.3c-35.3-8.8-109,10.4-109,10.4c-57.7-13.7-118.6,15.2-118.6,15.2
			c-93,57.6-72.3,176.3-67.5,195.6s0.8,49.7,0.8,49.7c12-11.2,5.6,21.7,5.6,21.7s-0.8,9.6,0,3.2s9.6-4,9.6-4
			c-6.4,24,1.6,20.8,1.6,20.8c13.6-33.6,13.6-1.6,13.6-1.6c-8,16,4,46.5,4,46.5c3.2-31.3,5.6-1.6,5.6-1.6
			c1.5,56.9,13.6,30.5,13.6,30.5c11.2,48.1,18.4,33.7,18.4,33.7c10.4,27.3,80.1,141.2,80.1,141.2c135.4,158,314.1,169.3,314.1,169.3
			c-11.2,16.8,11.2,32.1,11.2,32.1s-47.4,46.4-113.9,101s-97.8,56-97.8,56c-23.2-19.3-49.7,0-49.7,0l-16.5-1.6
			c51.6,16.5,105.3,25.7,159.4,27.3c32.7-0.8,58.3-3.9,58.3-3.9c3.3,1,6.6,1.6,10,2c6.7-0.6,13.4-1.3,20-2.1c3.9-1.2,7.6-3,10.9-5.4
			c2,1.2,4.2,2.2,6.4,3c36.9-5.7,73.1-14.9,108.1-27.6c-21.9-14.8-69.6,6.9-69.6,6.9c-2.4-9.6-21.6-13.6-21.6-13.6
			c-15.2-1.6-11.2-8.8-11.2-8.8l106.7-118.6c20.9-10.4,22.5-50.5,22.5-50.5c24.8,6.4,16-12,16-12c60.9,10.5,66.6-12,66.6-12
			c81.5,32.7,116,42.1,130.4,43.6c12.8,1.4,9.8-3.4,9.8-3.4c182.7,98.7,100.2,27.3,100.2,27.3c-2.4-3.3-64.8-58.4-75.5-67.9
			c-22.6-19.9-41.5-36.4-41.5-36.4l18.4-2.4c17-2.2,35.9,1.3,46.2,3.7c4.7,1.1,7.5,2,7.5,2c39.3,14.4,136.3,11.3,136.3,11.3
			l64.9,20.1C1228.4,971.3,1101.7,930.3,1101.7,930.3z M505.2,1115.9c-50.5,56.1-87.4,48.8-87.4,48.8c-14.4-4.8,0.8-16.8,0.8-16.8
			c16.1-27.2,138-112.9,138-112.9c26.4-7.2-4.8-22.5,22.5-32C606.2,993.4,555.7,1059.8,505.2,1115.9z"/>
		<path class="st1" d="M249.4,265.3c5.8,0.3,3.7-5,2.1-8c-5.5-10.2-17.5-41.8-24.2-50.6c-7.8-10.3-4.5-3.4-5.2-9.7
			c-0.1-1.1-2-5.2-4.7-3.5c-4,2.7-1.9,2.3-9.9,7.4c-26.8,17.3-48.8,32.4-73.3,54.5c-10.8,9.8-11.3,11.5-19.6,22.6
			c4-1.4,9.9-4.1,14.7-5.5c5.5-7.4,5.2-7.3,24.7-13.8c7.2-2.4,11.5-6.8,22.6-15.7c5.1-4.1,37.8-30.5,37.9-29.9l0.8,10
			c0,0-1.3,4.5-1.6,5c-1.5,2.4-9.5,6.7-16.4,18.3c-6.2,10.4-23.2,46-29.1,57.5c-0.9,1.7-0.9,1.7-7.3,4.9
			c-29.5,14.7-76.2,41.3-103.6,58c-5.9,3.6-17.1,10-19.9,14.4c-4.5,7.1,1.2,17.2,3.6,18.1c1.8,0.6,3.5,1.3,5.2,2.1
			c4.5,2,9.2,1.6,7.6-2.5c-2.3-6.2-14.1-15.4,5.3-15.1c7.6,0.1,16.4,0.6,24-1c8.4-1.8,47-27,60.3-35.4c11.1-7,37.3-24.1,38.1-24.4
			c10.4-4,5.6-9.7,19.4,6.1c4.3,4.9,13.8,16.3,18.9,19.1c19,10.4,29.2-20.4,30.5-36.4s-5.5-35.6-11-49.4
			C237.5,257.7,242.9,265,249.4,265.3z"/>
		<path class="st2" d="M219.6,255.9l-0.9,2.8c0,0,12.9,10.1,13.8,12C228.8,265.1,223.2,258.7,219.6,255.9z"/>
		<path class="st2" d="M225.1,210.8l-0.7,1.4c0,0,10.4,12.7,10.9,14.7C232.9,220.7,228.1,214.3,225.1,210.8z"/>
		<polygon class="st0" points="240.6,262.1 255.1,259.1 260.1,266.1 241.7,265.1 		"/>
	</g>
</g>
<g id="Layer_2">
</g>
</svg>
